<svg width="175" height="55" viewBox="0 0 175 55" fill="none" xmlns="http://www.w3.org/2000/svg">
<path d="M30.8927 3.24794C32.8113 3.24794 33.7706 3.77996 33.7706 4.844C33.7706 5.76354 33.0462 7.11001 31.5975 8.88341C31.4148 9.10673 31.0232 9.48769 30.4229 10.0263L28.1911 12.0361L21.5348 17.6125C21.8611 18.2036 22.4158 18.913 23.1989 19.7406C23.982 20.5682 24.6802 21.2447 25.2937 21.7701C26.6249 22.9524 27.4341 23.5435 27.7212 23.5435C28.0214 23.5435 28.3934 23.4319 28.8371 23.2085C29.2939 22.9852 29.8029 22.6962 30.3641 22.3416C30.9253 21.9737 31.5192 21.5599 32.1457 21.1002L37.0791 17.3366C37.5489 16.9688 38.0188 16.7849 38.4886 16.7849C39.4675 16.7849 39.9569 17.1921 39.9569 18.0066C39.9569 19.0706 39.4414 20.312 38.4103 21.7307C38.0971 22.1511 37.7969 22.5058 37.5098 22.7948L36.2764 23.9376C32.7003 27.2348 29.5223 29.4155 26.7424 30.4795C25.881 30.821 25.1109 30.9918 24.4323 30.9918C23.7536 30.9918 23.101 30.8736 22.4746 30.6371C21.8481 30.4007 21.2281 30.0854 20.6147 29.6913C20.0013 29.2972 19.4009 28.844 18.8136 28.3317C18.2394 27.8063 17.6912 27.2545 17.1691 26.6765C16.2164 25.6256 15.3289 24.4696 14.5067 23.2085L10.9045 25.9081C7.06735 28.7192 4.72461 30.1248 3.87627 30.1248C2.96267 30.1248 2.0817 29.8621 1.23336 29.3366C0.985382 29.1921 0.815714 29.0345 0.724354 28.8637C0.241451 28.3777 0 27.3793 0 25.8687C0 24.358 0.123989 23.0115 0.371966 21.8292C0.606891 20.6338 0.926651 19.4319 1.33125 18.2233C1.73584 17.0016 2.20569 15.7931 2.7408 14.5977C3.27591 13.4023 3.83712 12.2594 4.42443 11.1691C5.01175 10.0788 5.61211 9.06732 6.22553 8.13465C6.83895 7.18883 7.42626 6.37438 7.98747 5.69129C9.1621 4.22003 10.0431 3.4844 10.6304 3.4844C11.2307 3.4844 11.8311 3.53694 12.4315 3.64203C13.0318 3.74712 13.5735 3.90476 14.0564 4.11494C15.1527 4.61412 15.7009 5.29064 15.7009 6.1445C15.7009 6.65681 15.4986 7.20854 15.094 7.79967C14.6894 8.3908 14.2391 9.08703 13.7431 9.88834C12.4119 12.1346 11.4853 13.7307 10.9632 14.6765L9.65153 17.1593C8.88149 18.6831 8.49648 19.6223 8.49648 19.977C8.49648 20.2792 8.74445 20.4302 9.24041 20.4302C9.43618 20.4302 10.154 19.8916 11.3939 18.8145L14.6829 15.9376L24.9608 6.47947C25.4568 6.0197 25.7439 5.75041 25.8222 5.67159C26.6184 4.85714 27.4667 4.25287 28.3673 3.85878C29.2809 3.45156 30.1227 3.24794 30.8927 3.24794Z" fill="white"/>
<path d="M54.1308 7.26765C53.7523 7.58292 53.3412 7.84565 52.8974 8.05583C52.4537 8.25287 51.9577 8.3514 51.4096 8.3514C50.8614 8.3514 50.3328 8.25944 49.8238 8.07553C49.3148 7.89162 48.8711 7.63547 48.4926 7.30706C47.6703 6.5977 47.2592 5.69129 47.2592 4.58785C47.2592 2.89326 48.6688 1.63218 51.4879 0.804592C52.4406 0.515593 53.2237 0.371094 53.8371 0.371094C54.4505 0.371094 54.9073 0.443343 55.2075 0.587843C55.5208 0.719206 55.7753 0.896546 55.971 1.11986C56.3626 1.5665 56.5583 2.02627 56.5583 2.49917C56.5583 2.95894 56.4996 3.37931 56.3821 3.76026C56.2777 4.14121 56.1211 4.5353 55.9123 4.94253C55.7035 5.34975 55.449 5.75698 55.1488 6.1642C54.8486 6.57143 54.5093 6.93924 54.1308 7.26765ZM49.1973 28.9622C48.2054 29.4746 47.2396 29.8818 46.2999 30.1839C45.3602 30.4992 44.4336 30.6568 43.52 30.6568C42.6194 30.6568 41.6797 30.4401 40.7009 30.0066C39.7351 29.5599 38.8737 28.9688 38.1167 28.2332C36.433 26.5911 35.5912 24.7652 35.5912 22.7553C35.5912 20.9031 36.1394 19.0246 37.2357 17.1199C38.2407 15.399 39.5197 13.954 41.0728 12.7849C42.6259 11.6158 44.0681 11.0312 45.3994 11.0312C47.3049 11.0312 48.3229 11.5698 48.4534 12.647C48.4926 12.9754 48.5121 13.3563 48.5121 13.7898C48.5121 14.2233 48.4077 14.7225 48.1989 15.2874C48.0031 15.8391 47.7421 16.3974 47.4158 16.9622C47.1026 17.514 46.7502 18.0591 46.3587 18.5977C45.9802 19.1232 45.6147 19.6026 45.2623 20.0361C44.5837 20.8637 44.042 21.4614 43.6374 21.8292C43.6374 22.2759 43.9702 22.7356 44.6359 23.2085C45.2623 23.6552 45.7909 23.8785 46.2216 23.8785C46.6654 23.8785 47.1809 23.7734 47.7682 23.5632C48.3686 23.353 48.982 23.0706 49.6085 22.7159C50.248 22.3613 50.894 21.954 51.5466 21.4943C52.2122 21.0345 52.8648 20.5616 53.5043 20.0755L57.0869 17.2578C58.5095 16.22 59.6646 15.7012 60.5521 15.7012C60.9045 15.7012 61.172 15.8325 61.3547 16.0952C61.5505 16.3448 61.6484 16.6404 61.6484 16.9819C61.6484 17.3235 61.4787 17.7964 61.1394 18.4007C60.8001 18.9918 60.3302 19.6486 59.7298 20.3711C59.1425 21.0936 58.4508 21.8489 57.6547 22.6371C56.8585 23.4253 55.9971 24.2003 55.0705 24.9622C54.1438 25.7242 53.178 26.4532 52.1731 27.1494C51.1812 27.8325 50.1892 28.4368 49.1973 28.9622Z" fill="white"/>
<path d="M56.0689 23.5435C55.8209 23.5435 55.5795 23.4844 55.3446 23.3662C55.0966 23.248 54.8682 23.0575 54.6594 22.7948C54.2026 22.2168 53.9742 21.4286 53.9742 20.4302C53.9742 19.3662 54.6072 18.0394 55.8731 16.4499C57.1 14.913 58.5291 13.5862 60.1605 12.4696C61.9094 11.2611 63.4103 10.6568 64.6633 10.6568C65.7726 10.6568 66.5231 10.9721 66.9146 11.6026L67.1887 12.0361C67.3975 12.3645 67.6064 12.5287 67.8152 12.5287C68.024 12.5287 68.3503 12.509 68.7941 12.4696L71.574 12.2726C72.0047 12.2332 72.344 12.2135 72.592 12.2135C72.84 12.2135 73.1206 12.3054 73.4338 12.4893C73.7601 12.6601 74.0472 12.89 74.2952 13.179C74.8434 13.8358 75.1175 14.5583 75.1175 15.3465C75.1175 16.1609 74.2234 17.4417 72.4354 19.1888L71.1433 20.4893C70.2167 21.4483 69.7533 22.0526 69.7533 22.3021C69.7533 22.5517 69.8708 22.7751 70.1057 22.9721C70.3406 23.156 70.5951 23.248 70.8692 23.248C71.1433 23.248 71.45 23.1757 71.7894 23.0312C72.1417 22.8736 72.5724 22.6503 73.0814 22.3613C73.5904 22.0591 74.1712 21.6979 74.8238 21.2775C76.6119 20.0952 77.8061 19.2808 78.4064 18.8342L80.0313 17.6716C81.1407 16.8834 81.9303 16.4893 82.4002 16.4893C82.87 16.4893 83.255 16.5944 83.5552 16.8046C83.8554 17.0016 84.0055 17.3498 84.0055 17.8489C84.0055 18.3481 83.751 19.0181 83.242 19.8588C82.733 20.6995 82.1783 21.4286 81.5779 22.046C80.9906 22.6634 80.4163 23.2348 79.8551 23.7603C79.2939 24.2857 78.6283 24.8572 77.8583 25.4746C77.1013 26.0788 76.2595 26.6962 75.3328 27.3268C74.4062 27.9442 73.4273 28.5025 72.3962 29.0017C70.06 30.1445 67.9131 30.7159 65.9554 30.7159C63.0971 30.7159 61.3547 29.9737 60.7283 28.4893C60.5325 28.0427 60.4346 27.5435 60.4346 26.9918C60.4346 26.4401 60.539 25.8489 60.7478 25.2184C60.9567 24.5747 61.2308 23.9376 61.5701 23.3071C62.2488 22.0591 63.0514 20.9557 63.9781 19.9967C64.7612 19.1691 65.1527 18.6765 65.1527 18.5189C65.1527 18.2693 65.0091 18.1117 64.722 18.046C64.4479 17.9803 64.0368 17.9475 63.4886 17.9475C63.2537 17.9475 62.7512 18.289 61.9812 18.9721L60.0626 20.7455C58.0266 22.6108 56.6954 23.5435 56.0689 23.5435Z" fill="white"/>
<path d="M114.428 15.248C114.846 15.248 115.055 15.6026 115.055 16.312C115.055 17.5337 114.206 19.1166 112.51 21.0608L111.394 22.2036C108.014 25.6059 104.829 27.8719 101.84 29.0017C99.987 29.6979 98.6557 29.665 97.8465 28.9031C97.1809 28.2595 96.6523 27.2217 96.2608 25.7898L95.7909 24.0755L91.621 26.6568L89.213 28.0361C86.3417 29.6125 84.1882 30.4007 82.7525 30.4007C80.9123 30.4007 79.3788 29.6847 78.1519 28.2529C76.9773 26.8998 76.39 25.3301 76.39 23.5435C76.39 21.7833 77.0882 20.2135 78.4847 18.8342C80.4816 16.8637 83.6335 15.0575 87.9405 13.4154C92.0125 11.8785 95.3015 11.11 97.8074 11.11C98.6557 11.11 99.0799 11.5304 99.0799 12.3711C99.0799 12.9491 98.9689 13.3826 98.7471 13.6716C98.5252 13.9606 98.0684 14.2562 97.3767 14.5583L94.9099 15.6223C91.2555 17.1593 88.58 18.7553 86.8833 20.4105C86.4004 20.8703 86.159 21.3169 86.159 21.7504C86.159 22.1839 86.5048 22.4007 87.1966 22.4007C87.8752 22.4007 89.4545 21.665 91.9342 20.1938L93.5591 19.2283C96.0781 17.7044 98.1859 16.9425 99.8825 16.9425C101.318 16.9425 102.271 17.5796 102.741 18.8539C102.858 19.1954 102.969 19.5435 103.074 19.8982C103.178 20.2397 103.282 20.5484 103.387 20.8243C103.622 21.468 103.831 21.7898 104.013 21.7898C104.209 21.7898 104.483 21.6979 104.836 21.514C105.188 21.3169 105.573 21.0739 105.991 20.7849C106.421 20.4828 106.865 20.1544 107.322 19.7997L109.691 17.8883C111.792 16.1281 113.371 15.248 114.428 15.248Z" fill="white"/>
<path d="M132.165 19.4647C132.165 20.6601 132.511 21.2578 133.203 21.2578C134.9 21.2578 137.105 20.1018 139.82 17.7898L140.348 17.3366C141.406 16.6273 142.261 16.2726 142.913 16.2726C143.579 16.2726 143.996 16.3711 144.166 16.5681C144.349 16.7652 144.44 17.0805 144.44 17.514C144.44 18.486 143.951 19.5172 142.972 20.6076C141.51 22.3941 139.507 24.0887 136.962 25.6913C134.012 27.5567 131.369 28.4893 129.033 28.4893C127.401 28.4893 126.377 27.5764 125.959 25.7504C125.842 25.2775 125.757 24.8243 125.705 24.3908C125.574 23.3399 125.437 22.7553 125.294 22.6371C125.15 22.5189 124.863 22.532 124.432 22.6765C124.015 22.8079 123.512 23.0378 122.925 23.3662C122.351 23.6815 121.711 24.069 121.006 24.5287C117.274 27.0246 115.127 28.4499 114.565 28.8046C113.221 29.6453 112.314 30.0657 111.844 30.0657C111.374 30.0657 110.911 29.9672 110.454 29.7701C110.01 29.5731 109.619 29.3235 109.28 29.0214C108.575 28.3514 108.222 27.6683 108.222 26.9721C108.222 22.9918 109.084 19.5107 110.807 16.5287C111.955 14.5189 113.365 13.1264 115.035 12.3514C115.884 11.9442 116.797 11.7406 117.776 11.7406C119.564 11.7406 120.458 12.3317 120.458 13.514C120.458 14.2365 120.034 15.4187 119.186 17.0608L118.598 18.2233C118.181 19.0246 117.978 19.4778 117.991 19.5829C118.07 19.977 118.246 20.1741 118.52 20.1741C118.82 20.1741 119.264 19.9507 119.851 19.5041L123.453 16.8046L125.255 15.5435C127.33 14.1773 128.857 13.4943 129.836 13.4943C130.358 13.4943 130.834 13.7044 131.265 14.1248C132.061 14.8867 132.459 15.5501 132.459 16.1149C132.459 16.2989 132.439 16.5222 132.4 16.7849C132.374 17.0476 132.341 17.3301 132.302 17.6322L132.224 18.5583C132.185 18.8736 132.165 19.1757 132.165 19.4647Z" fill="white"/>
<path d="M174.374 15.248C174.791 15.248 175 15.6026 175 16.312C175 17.5337 174.152 19.1166 172.455 21.0608L171.339 22.2036C167.959 25.6059 164.774 27.8719 161.785 29.0017C159.932 29.6979 158.601 29.665 157.792 28.9031C157.126 28.2595 156.597 27.2217 156.206 25.7898L155.736 24.0755L151.566 26.6568L149.158 28.0361C146.287 29.6125 144.133 30.4007 142.698 30.4007C140.857 30.4007 139.324 29.6847 138.097 28.2529C136.922 26.8998 136.335 25.3301 136.335 23.5435C136.335 21.7833 137.033 20.2135 138.43 18.8342C140.427 16.8637 143.579 15.0575 147.886 13.4154C151.958 11.8785 155.247 11.11 157.753 11.11C158.601 11.11 159.025 11.5304 159.025 12.3711C159.025 12.9491 158.914 13.3826 158.692 13.6716C158.47 13.9606 158.014 14.2562 157.322 14.5583L154.855 15.6223C151.201 17.1593 148.525 18.7553 146.829 20.4105C146.346 20.8703 146.104 21.3169 146.104 21.7504C146.104 22.1839 146.45 22.4007 147.142 22.4007C147.82 22.4007 149.4 21.665 151.879 20.1938L153.504 19.2283C156.023 17.7044 158.131 16.9425 159.828 16.9425C161.263 16.9425 162.216 17.5796 162.686 18.8539C162.803 19.1954 162.914 19.5435 163.019 19.8982C163.123 20.2397 163.228 20.5484 163.332 20.8243C163.567 21.468 163.776 21.7898 163.958 21.7898C164.154 21.7898 164.428 21.6979 164.781 21.514C165.133 21.3169 165.518 21.0739 165.936 20.7849C166.366 20.4828 166.81 20.1544 167.267 19.7997L169.636 17.8883C171.737 16.1281 173.316 15.248 174.374 15.248Z" fill="white"/>
<path d="M65.6626 42.3205H63.3572V40.3028H70.1732V42.3205H67.8678V54.427H65.6626V42.3205Z" fill="white"/>
<path d="M74.35 54.6287C73.2675 54.6287 72.4389 54.3194 71.8642 53.7006C71.2895 53.0818 71.0022 52.2075 71.0022 51.0775V43.6523C71.0022 42.5223 71.2895 41.648 71.8642 41.0292C72.4389 40.4104 73.2675 40.101 74.35 40.101C75.4326 40.101 76.2612 40.4104 76.8359 41.0292C77.4105 41.648 77.6979 42.5223 77.6979 43.6523V51.0775C77.6979 52.2075 77.4105 53.0818 76.8359 53.7006C76.2612 54.3194 75.4326 54.6287 74.35 54.6287ZM74.35 52.611C75.1118 52.611 75.4927 52.1469 75.4927 51.2188V43.511C75.4927 42.5829 75.1118 42.1188 74.35 42.1188C73.5883 42.1188 73.2074 42.5829 73.2074 43.511V51.2188C73.2074 52.1469 73.5883 52.611 74.35 52.611Z" fill="white"/>
<path d="M82.3967 54.6287C81.3275 54.6287 80.5123 54.3261 79.951 53.7208C79.3897 53.102 79.109 52.2209 79.109 51.0775V40.3028H81.3142V51.2389C81.3142 51.7232 81.4077 52.0729 81.5948 52.2882C81.7953 52.5034 82.076 52.611 82.4368 52.611C82.7976 52.611 83.0716 52.5034 83.2587 52.2882C83.4592 52.0729 83.5594 51.7232 83.5594 51.2389V40.3028H85.6844V51.0775C85.6844 52.2209 85.4038 53.102 84.8424 53.7208C84.2811 54.3261 83.4659 54.6287 82.3967 54.6287Z" fill="white"/>
<path d="M87.255 40.3028H90.5226C91.6586 40.3028 92.4872 40.5718 93.0085 41.1099C93.5297 41.6345 93.7903 42.4483 93.7903 43.5514V44.419C93.7903 45.8852 93.3092 46.8134 92.3469 47.2035V47.2438C92.8815 47.4052 93.2557 47.7348 93.4695 48.2325C93.6967 48.7302 93.8103 49.3961 93.8103 50.2301V52.7119C93.8103 53.1154 93.8237 53.445 93.8504 53.7006C93.8772 53.9427 93.944 54.1848 94.0509 54.427H91.8056C91.7255 54.1983 91.672 53.9831 91.6453 53.7813C91.6185 53.5795 91.6052 53.2163 91.6052 52.6917V50.109C91.6052 49.4633 91.4982 49.0127 91.2844 48.7571C91.0839 48.5015 90.7298 48.3738 90.2219 48.3738H89.4601V54.427H87.255V40.3028ZM90.262 46.356C90.7031 46.356 91.0305 46.2417 91.2443 46.013C91.4715 45.7843 91.5851 45.401 91.5851 44.8629V43.7733C91.5851 43.2622 91.4916 42.8922 91.3045 42.6636C91.1307 42.4349 90.8501 42.3205 90.4625 42.3205H89.4601V46.356H90.262Z" fill="white"/>
<path d="M100.255 40.3028H103.242L105.527 54.427H103.322L102.921 51.6223V51.6627H100.415L100.014 54.427H97.9696L100.255 40.3028ZM102.661 49.7458L101.678 42.7645H101.638L100.676 49.7458H102.661Z" fill="white"/>
<path d="M106.597 40.3028H109.364L111.509 48.7571H111.549V40.3028H113.513V54.427H111.248L108.602 44.1163H108.562V54.427H106.597V40.3028Z" fill="white"/>
<path d="M115.152 40.3028H118.52C119.616 40.3028 120.438 40.5988 120.986 41.1906C121.534 41.7825 121.808 42.6501 121.808 43.7935V50.9363C121.808 52.0797 121.534 52.9473 120.986 53.5392C120.438 54.131 119.616 54.427 118.52 54.427H115.152V40.3028ZM118.48 52.4092C118.841 52.4092 119.115 52.3016 119.302 52.0864C119.503 51.8712 119.603 51.5214 119.603 51.0372V43.6926C119.603 43.2084 119.503 42.8586 119.302 42.6434C119.115 42.4282 118.841 42.3205 118.48 42.3205H117.358V52.4092H118.48Z" fill="white"/>
<path d="M128.231 42.3205H125.926V40.3028H132.742V42.3205H130.436V54.427H128.231V42.3205Z" fill="white"/>
<path d="M133.809 40.3028H137.077C138.213 40.3028 139.042 40.5718 139.563 41.1099C140.084 41.6345 140.345 42.4483 140.345 43.5514V44.419C140.345 45.8852 139.864 46.8134 138.901 47.2035V47.2438C139.436 47.4052 139.81 47.7348 140.024 48.2325C140.251 48.7302 140.365 49.3961 140.365 50.2301V52.7119C140.365 53.1154 140.378 53.445 140.405 53.7006C140.432 53.9427 140.498 54.1848 140.605 54.427H138.36C138.28 54.1983 138.226 53.9831 138.2 53.7813C138.173 53.5795 138.16 53.2163 138.16 52.6917V50.109C138.16 49.4633 138.053 49.0127 137.839 48.7571C137.638 48.5015 137.284 48.3738 136.776 48.3738H136.015V54.427H133.809V40.3028ZM136.816 46.356C137.257 46.356 137.585 46.2417 137.799 46.013C138.026 45.7843 138.14 45.401 138.14 44.8629V43.7733C138.14 43.2622 138.046 42.8922 137.859 42.6636C137.685 42.4349 137.404 42.3205 137.017 42.3205H136.015V46.356H136.816Z" fill="white"/>
<path d="M143.599 40.3028H146.586L148.871 54.427H146.666L146.265 51.6223V51.6627H143.759L143.358 54.427H141.313L143.599 40.3028ZM146.004 49.7458L145.022 42.7645H144.982L144.02 49.7458H146.004Z" fill="white"/>
<path d="M148.792 40.3028H151.017L152.46 51.2591H152.501L153.944 40.3028H155.969L153.844 54.427H150.917L148.792 40.3028Z" fill="white"/>
<path d="M157.028 40.3028H163.042V42.3205H159.233V46.0534H162.26V48.0711H159.233V52.4092H163.042V54.427H157.028V40.3028Z" fill="white"/>
<path d="M164.311 40.3028H166.516V52.4092H170.144V54.427H164.311V40.3028Z" fill="white"/>
</svg>
